<?xml version="1.0" encoding="iso-8859-1"?>
<!DOCTYPE svg PUBLIC "-//W3C//DTD SVG 1.1//EN" "http://www.w3.org/Graphics/SVG/1.1/DTD/svg11.dtd" [
    <!ENTITY ns_flows "http://ns.adobe.com/Flows/1.0/">
    <!ENTITY ns_extend "http://ns.adobe.com/Extensibility/1.0/">
    <!ENTITY ns_ai "http://ns.adobe.com/AdobeIllustrator/10.0/">
    <!ENTITY ns_graphs "http://ns.adobe.com/Graphs/1.0/">
]>
<!-- Generator: Adobe Illustrator 19.0.0, SVG Export Plug-In . SVG Version: 6.00 Build 0)  -->
<svg version="1.1" id="Objects" xmlns:x="&ns_extend;" xmlns:i="&ns_ai;" xmlns:graph="&ns_graphs;"
	 xmlns="http://www.w3.org/2000/svg" xmlns:xlink="http://www.w3.org/1999/xlink" xmlns:a="http://ns.adobe.com/AdobeSVGViewerExtensions/3.0/"
	 x="0px" y="0px" viewBox="0 0 1500 1500" style="enable-background:new 0 0 1500 1500;" xml:space="preserve">
<g id="XMLID_1_">
	<polygon id="XMLID_113_" style="fill:#594F50;" points="990.984,1234.708 536.542,1234.708 525.758,1242.253 999.694,1242.253 	"/>
	<path id="XMLID_92_" style="fill:#594F50;" d="M692.35,1133.549c0.998,6.935,5.983,18.178,24.296,25.656
		c32.776,13.327,41.433-7.705,41.433-7.705c-1.634-4.531-15.912-10.291-29.105-11.243c-10.105-0.631-22.03-8.021-25.883-12.826
		c-4.898-6.123-9.34-1.499-9.34-1.499S691.488,1127.473,692.35,1133.549z"/>
	<path id="XMLID_89_" style="fill:#594F50;" d="M697.336,1116.277c0,0-1.723,3.63,2.673,4.897c0,0,4.354,0.724,7.706,4.939
		c1.769,2.224,12.784,10.022,25.433,9.794c12.691-0.139,23.66,7.706,26.199,11.062c0.501,0.678,0.998,0.088,1.453-1.091
		c0.543,3.31,1.676,5.942,3.351,7.255c0,0,3.129,2.674,5.621-1.722c0,0,1.908-4.442,7.121-7.074
		c2.627-1.406,13.643-11.284,17.134-24.57c3.444-13.192,14.459-23.117,18.451-25.02c2.312-1.091-4.67-4.173-8.026-4.623
		c-3.946-0.59-12.194,0.905-22.122,9.428c-0.363-1.272-0.632-2.493-1.087-3.853c-5.529-16.274-20.67-26.793-28.195-24.662
		c0,0-3.899,1.044-1.861,5.259c0,0,2.317,3.765,1.318,8.931c-0.455,2.808,0.859,16.316,9.335,25.702
		c2.089,2.265,3.672,4.804,4.99,7.39c-1.179,2.084-2.177,4.215-2.994,6.299c-1.996-4.67-4.804-9.655-8.16-13.963
		c-6.117-8.021-8.383-21.849-7.204-27.967c1.36-7.659-4.99-7.979-4.99-7.979s-2.762-0.678-6.661,3.946
		c-4.354,4.985-9.066,15.276-4.215,32.048C717.189,1105.215,700.553,1109.477,697.336,1116.277z"/>
	<path id="XMLID_78_" style="fill:#594F50;" d="M797.243,1125.12c-3.625,10.379-14.413,21.302-20.443,24.384
		c-7.39,3.811-4.126,9.432-4.126,9.432s0.909,2.72,7.208,3.082c7.255,0.316,19.812-2.632,32.456-20.22
		c22.801-31.505,4.261-44.92,4.261-44.92C811.707,1097.737,801.867,1111.384,797.243,1125.12z"/>
	<path id="XMLID_37_" style="fill:#594F50;" d="M767.823,1008.028c3.491-21.079,15.007-29.694,27.336-49.817
		c17.769-28.924-1.676-52.449-1.676-52.449c2.627,6.118,5.301,24.068-9.609,47.371
		C761.477,988.082,767.823,1008.028,767.823,1008.028z"/>
	<path id="XMLID_123_" style="fill:#594F50;" d="M793.302,967.82c-2.084,3.082-4.173,5.983-5.983,8.523
		c-7.571,10.379-13.508,18.586-15.824,32.275c-0.223,1.676-1.722,2.989-3.398,3.175c-0.088,0-0.135,0-0.274,0
		c-1.629,0-3.082-1.091-3.533-2.72c-0.274-0.729-4.716-16.047,7.979-42.566c-1.727-0.093-3.355-0.181-5.032-0.227
		c-7.617,14.005-12.194,25.702-6.847,43.88c0.409,1.722-0.316,3.356-1.769,4.261c-0.636,0.362-1.179,0.543-1.815,0.543
		c-0.952,0-1.991-0.362-2.72-1.086c-0.181-0.227-18.948-18.995-15.276-47.371c-1.448,0.042-3.036,0.135-4.531,0.181
		c-0.817,15.82,4.851,28.603,4.897,28.784c0.771,1.629,0.316,3.444-1.091,4.577c-0.678,0.409-1.495,0.771-2.312,0.771
		s-1.675-0.362-2.4-0.905c-7.571-6.526-13.011-18.54-14.686-32.094c-49.414,4.67-85.132,18.312-85.132,34.313
		c0,19.858,54.713,36.04,122.346,36.04c67.544,0,122.393-16.182,122.393-36.04C878.295,986.132,842.576,972.531,793.302,967.82z
		 M646.929,1006.895c-7.845-13.058,28.148-23.934,28.148-23.934c-9.79,5.482-14.641,12.737-11.512,21.576
		c8.476,23.21,93.469,27.926,93.469,27.926C708.759,1033.549,654.817,1020.041,646.929,1006.895z M809.846,1027.519
		c0,0,46.238-9.154,44.201-24.616c-2.224-16.859-42.024-25.971-46.921-26.561c0,0,55.577,7.297,57.392,25.475
		C866.282,1020.041,814.154,1026.568,809.846,1027.519z M827.392,988.216c0,0,17.857,7.343,17.314,16.729
		c-0.59,9.381-22.123,13.87-25.567,14.413c0,0,18.901-5.844,19.31-15.365C838.858,995.017,830.201,989.535,827.392,988.216z"/>
	<path id="XMLID_21_" style="fill:#594F50;" d="M748.694,1207.346c0,0-76.109,1.68-109.744-28.645
		c-14.144-12.742-19.31-33.909,0.636-55.396c0,0-37.901,21.849-19.946,54.849c18.902,34.772,98.051,55.939,186.126,36.945
		c16.321-3.579,48.642-13.373,69.541-30.822c21.756-18.178,32.59-45.56,12.235-58.432c0,0,8.253,7.478,7.075,18.948
		C892.532,1164.283,863.158,1204.264,748.694,1207.346z"/>
	<path id="XMLID_20_" style="fill:#594F50;" d="M630.743,1007.754c0,0-6.392,125.93,71.624,151.906
		C702.368,1159.66,642.348,1132.096,630.743,1007.754z"/>
	<path id="XMLID_19_" style="fill:#594F50;" d="M812.339,1159.66c78.016-25.976,71.624-151.906,71.624-151.906
		C872.358,1132.096,812.339,1159.66,812.339,1159.66z"/>
	<g id="XMLID_5_">
		<path id="XMLID_14_" style="fill:#594F50;" d="M579.604,617.511c0.271,0.542-0.136,1.085-0.678,1.085
			c-2.169,0-2.983,0.135-3.797,0.271l-0.813-0.271h-0.949l-0.813,0.271l-0.814-0.271c-1.492,0-1.22,0-1.763,0.135
			c-0.407-0.135,0-0.135-2.441-0.135c-0.678,0-1.085-0.814-0.542-1.356c0.271-0.271,0.271-0.407,0.407-0.678
			c0.271-1.356,0-0.814,0.678-2.441c0.678-2.712,0.136-0.678,0.678-4.068c0-0.813,0-1.356,0-1.356c0-2.441,0-1.898-0.135-2.712
			c0.135-0.814,0.135-0.407,0.135-1.898l-0.135-0.678c0.135-2.441,0.135-1.085,0.135-3.39l-0.271-0.542l0.271-0.678v-1.627
			l-0.135-0.407l0.135-0.407v-1.627l-0.135-0.542c0.135-1.627,0-1.22,0.135-1.627c0-4.068,0.136-2.712-0.271-5.018
			c0.271-1.492,0.271,0.407,0.271-11.391l-0.135-0.542c-0.136-3.39,0.271-1.085,0.135-5.289c0.136-1.492,0-1.763-0.135-2.577
			c0.135-1.356,0.135,0,0.135-7.594l-0.135-0.407c0.135-0.407,0.135,0,0.135-2.577c0-0.949,0-0.813-0.135-1.356v-0.542
			c-0.136-1.763-0.136-1.898-0.542-3.661c-0.271-0.814-0.678-1.763-1.221-2.983v-0.271c-0.407-0.407,0-1.085,0.678-1.085
			c0.813,0,0.407,0,1.22-0.271c1.492,0,0.949,0.136,2.577,0l0.542,0.271h5.289l0.407-0.271c1.356,0.271,1.085,0.271,1.356,0.271
			c0.542,0,0.949,0.678,0.678,1.085v0.271l-0.407,0.407c-0.407,0.678-0.678,0.949-1.085,2.983c-0.136,2.576-0.136,2.305-0.407,3.119
			c-0.136,1.221-0.136,2.034-0.136,2.034c0,0.542,0,0.271,0.271,1.356l-0.271,0.813c0,1.085,0,0.678,0.271,1.763l-0.271,0.813
			c0,1.492,0,1.221,0.136,1.898l-0.136,0.407c0,4.882,0,4.204,0.136,4.882c-0.271,2.577,0,3.254,0,3.933
			c-0.136,4.339,0.136,2.17,0,5.289c0.271,2.034,0.136,0.542,0.136,3.933c-0.271,0.949-0.271,0.271-0.271,3.254
			c0.271,1.492,0,0.271,0,3.39c0,0,0-0.407,0,5.695l0.271,0.814l-0.271,0.949c0,0.949,0,0.542,0.271,1.763
			c0,1.627,0,0.949-0.271,2.577l0.271,1.356l-0.271,1.085c0,6.78,0,5.424,0.271,6.916v1.356c0,0.542,0.271,2.441,0.678,3.933
			c0.136,0.271,0,0,0.678,1.356l0.407,0.407V617.511z"/>
		<path id="XMLID_30_" style="fill:#594F50;" d="M630.455,596.899c-0.271,1.627-0.271,1.084-0.136,2.712l-0.271,1.22l-0.271,0.678
			c-0.271,1.22-0.678,2.577-1.22,3.797v0.678c-0.814,1.22-0.542,0.678-1.898,3.39c-1.085,1.356-0.678,0.949-1.492,1.627
			c-0.542,0.542-1.085,1.085-1.627,1.627l-0.407,0.813l-0.678,0.136c-0.678,0.542-1.356,1.085-2.034,1.492l-0.542,0.678
			c-1.492,0.678-0.814,0.542-2.441,1.085c-2.034,0.678-2.17,0.814-3.254,1.085l-0.407,0.271c-1.22,0-0.407,0-1.763,0.136
			l-0.813,0.407l-1.356,0.136l-0.949-0.271c-0.678,0-1.356,0-2.17,0l-0.813,0.135c-1.627-0.407-1.221-0.271-1.898-0.542
			c-1.356-0.271-0.678-0.271-2.034-0.271c-4.746-2.034-6.238-3.526-6.916-3.933h-0.135c-0.542-0.542-1.085-0.949-1.627-1.492
			c-0.271-0.271,0,0-1.221-1.085c-0.813-1.22-0.678-1.084-0.813-1.22c-0.407-0.542-0.813-1.22-1.22-1.898
			c-0.271-0.136,0,0-1.085-1.085c-0.407-1.492-0.407-1.22-0.407-1.763c-0.678-1.492-0.542-1.492-0.814-2.034l-0.135-0.271
			c-0.542-2.034-0.136-1.356-0.678-2.306c0-2.034,0-1.084-0.136-2.712l-0.271-1.22c0.271-1.627,0.136-0.949,0.271-2.577
			c0.136-1.627,0-1.085,0.407-2.712c1.084-2.034,0.271-0.678,1.22-2.983l0.136-0.678l0.407-0.542
			c0.813-1.763,0.542-0.949,0.813-1.763c0.678-0.678,0.136-0.136,1.221-1.627l0.271-0.678c1.763-2.034,0.271-0.271,2.848-2.983
			l0.136-0.542l0.271-0.271c0-0.136,0.136-0.407,0.271-0.407h0.136c0.271-0.135,0.542-0.135,0.813,0l0.949,0.814l0.136-0.136
			l-0.136,0.136l0.678,0.542c0.407,0.135,0.136,0,1.356,0.678l0.678,0.949c1.763,1.356,1.356,1.085,2.034,1.492
			c0.136,0.136,0.136,0.136,0.136,0.136v-0.136l0.135,0.271l0.814,0.542c0.542,0.542,0.271,1.356-0.407,1.492
			c-1.221,0-4.068,2.848-4.747,4.475c-0.813,1.356-0.678,1.221-0.813,1.356c-0.949,2.305-1.085,4.611-0.949,5.153
			c0.271,1.491,0.271,0.949,0.136,2.305c0.271,1.492,0.678,2.576,0.813,2.712c0.678,1.356,0.542,0.949,0.678,1.492
			c0.271,0.542,0.678,0.949,0.949,1.492c0.813,0.678,0.271,0.407,1.492,1.492l0.678,0.407l0.407,0.542
			c0.949,0.678,2.034,1.356,3.119,1.763c1.085,0.136,0.678,0,1.898,0.542c0.949,0.136,1.763,0.271,2.712,0.271
			c0.814,0,0.678,0,1.356-0.271c1.627,0,1.084,0.136,2.712-0.542h0.542c1.492-0.542,2.712-1.356,3.933-2.305
			c0.813-1.085,1.492-1.627,1.627-1.898c1.085-1.22,1.898-2.712,2.306-4.339c0-1.221,0-0.678,0.542-3.661
			c0-2.034-0.407-2.983-1.491-5.153c-0.271-0.813-1.763-2.848-2.306-3.39l-0.135-0.271c-0.407-0.407-0.814-0.813-1.221-1.221
			l-0.678-0.271l-0.407-0.678c-0.813-0.813-0.813-0.813-1.492-0.949l-0.271-0.542l-0.542-0.407l-0.136,0.136l-0.407-0.542
			c-4.339-3.39-3.525-2.848-4.61-3.254l-0.542-0.678c-1.763-1.356-5.153-4.068-6.374-5.017l-0.136,0.135l-0.135-0.271
			c-1.085-0.813-0.542-0.678-1.085-0.949c-1.221-1.085-0.813-0.678-1.898-1.898c-0.949-1.085-0.678-0.678-2.305-3.119
			c-0.407-1.492-0.271-1.22-1.085-2.441l-0.136-0.813c-0.271-1.492,0-0.542-0.407-1.763v-1.356c0-0.271,0-0.542,0-0.949
			l-0.136-0.542l0.407-0.949c0.135-0.949,0.271-1.898,0.678-2.848l0.271-1.221c0.813-1.356,0.542-0.813,1.356-2.169
			c0.949-1.221,0.678-0.949,1.22-1.356c1.763-1.898,3.119-2.441,3.526-2.983c1.356-0.678,1.22-0.542,1.492-0.678
			c0.407-0.136,0.949-0.407,1.492-0.542l0.678-0.407c1.492-0.136,1.221-0.136,1.492-0.136c1.763-0.271,3.526-0.136,5.289,0.136
			h0.949c1.221,0.813,0.542,0.407,1.627,0.813l0.813,0.136c2.305,1.492,5.831,3.526,7.594,8.679l0.407,0.407l-0.136,0.678
			c0.271,0.678,0.407,1.356,0.407,2.169h0.136v0.136c0.135,0.136,0.135,0.407,0.407,0.678c0.271,0.135,0.271,0.407,0.136,0.678
			l0.135,0.136h-0.135c-0.136,0.271-0.407,0.407-0.678,0.407h-1.22c0,0,0,0-0.136,0v0.271c-2.441-0.407-0.678-0.135-4.339,0
			l-0.542-0.271h-1.627l-0.678,0.271l-0.136-0.271c-0.542-0.136-0.813-0.813-0.407-1.22v-0.136v0.136
			c0.813-0.814-0.542-2.712-1.221-3.526l-1.084-0.542l-0.542-0.542c-0.271-0.136-0.542-0.271-0.949-0.407h-0.542l-0.542-0.136
			c-4.61-0.542-7.323,4.068-6.509,6.645l0.271,0.542l0.136,0.407c0.271,0.542,0.813,1.221,1.356,2.034l0.813,0.542l0.136,0.542
			c0.678,0.542,1.898,1.763,2.441,2.17l1.22,0.678v0.271h0.136v0.135v-0.135c1.22,1.084,0.949,0.813,1.22,1.084
			c1.627,1.356,1.221,1.085,1.899,1.356c1.356,0.949,0.949,0.542,2.034,1.627c1.221,1.085,0.949,0.949,2.17,1.492
			c1.492,1.492,0.949,0.949,2.441,2.305l0.678,0.136l0.949,0.813l-0.135,0.136c0,0,0,0,0.135,0c1.492,1.22,0.949,1.085,2.034,1.627
			l0.407,0.678c0.949,1.085,0.407,0.542,1.356,1.221c0.814,1.356,0.542,0.813,1.899,2.712l0.542,0.407
			c0.814,1.356,0.678,0.949,0.949,2.17c0.542,0.813,0.136,0.271,0.814,1.356l0.136,0.542c0.678,1.627,0.271,0.813,0.949,1.898
			c0,1.085-0.136,0.271,0.271,1.763l0.407,0.813c-0.271,2.17,0,0.407,0,2.712L630.455,596.899z"/>
		<path id="XMLID_32_" style="fill:#594F50;" d="M711.954,618.324c-0.407,0.407-0.678,0.271-1.22,0.271l-0.678,0.271l-0.678-0.271
			h-8.272h-1.22c-0.678,0-1.085-0.814-0.542-1.356c0.407-0.407,0.813-1.492,0.949-2.169v-0.813c0.407-1.492,0.407-1.085,0.678-4.068
			c0.135-0.407,0.135,0,0.135-4.068c-0.271-1.491-0.271-0.813-0.135-2.44l0.135-0.678v-1.221l-0.271-0.813l0.271-0.678v-1.492
			c-0.542-2.034,0.136-2.441-0.271-8.408l0.271-0.813v-1.221c-0.271-2.305-0.271-1.492-0.135-3.119c0-1.627,0-1.085,0-2.712
			c0.135-1.627,0.135-0.949-0.136-2.576l-0.271-0.678h-0.814c-1.492,0.407-0.949,0.136-2.305,1.221l-0.813,0.135
			c-1.492,0.678-1.085,0.542-1.627,0.949c-0.407,0,0-0.135-2.034,0.814l-0.407,0.407c-0.949,0.271-0.271,0-4.204,2.034l-0.542,0.407
			l-0.678,0.135c-3.119,1.492,0,0-2.983,1.627c-1.356,0.678-0.949,0.542-2.034,0.949c-2.712,1.221-0.949,0.542-3.797,2.17
			c-1.627,0.407-1.085,0.271-2.577,0.949l-0.542,0.813c0,2.034,0.136,1.492,0.136,3.933c0,2.712-0.136,0.136-0.136,3.254
			l0.271,0.678l-0.136,1.356l0.136,1.22l-0.271,0.678c0,6.645,0.136,2.034,0.271,5.831l-0.271,0.678
			c0.136,1.898,0.678,6.509,1.898,7.729c0.407,0.542,0.136,1.356-0.542,1.356h-0.949c-0.678,0.135-1.492,0.135-4.204,0.271
			l-0.542-0.271h-1.356l-0.542,0.271l-0.678-0.271c-3.39,0-2.848,0-3.119,0h-0.136c-0.271,0-0.542-0.136-0.678-0.407
			c-0.136-0.542,0.271-0.949,0.407-1.084c0-0.407,0-0.136,0.678-1.627c0.136-1.627,0-1.085,0.542-2.441
			c0.271-1.22,0.271-2.441,0.407-3.254l-0.271-1.085l0.271-0.678c0-2.034,0-1.763,0-2.034c0-0.949,0,0,0-4.746l-0.135-0.678
			c0.135-1.492,0.135-1.221,0.135-1.492c0-3.39,0-2.577-0.271-3.797l0.271-0.949c0-1.221,0-0.813-0.135-1.763l0.135-0.678v-2.034
			c0-1.085,0-0.542,0-1.22v-0.407c0.271-3.662,0.271-0.814,0.271-4.339l0.271-0.678c0.136-1.356,0.407-2.712,0.814-4.61
			c0.271-2.17,0.407-2.17,0.813-3.39c0,0,0.542-1.763,1.085-3.526c0.135-1.492,0.407-1.763,0.813-2.712
			c0.678-1.356,0.407-0.95,0.949-1.763c0.136-0.271,0.271-0.542,0.407-0.813l0.136-0.949c1.492-1.763,0.271-0.271,2.169-3.254
			l0.136-0.271c1.221-1.763,0.813-0.813,1.221-2.169c1.763-1.763,1.763-1.898,2.712-2.983c1.085-1.085,0.813-0.814,1.492-1.356
			c1.085-0.949,2.169-1.898,3.39-2.712l0.271-0.271h0.136c1.492-0.949,1.763-0.949,2.034-1.356l0.407-0.136
			c2.305-1.221,1.22-0.407,3.119-1.627h0.814c2.441-0.949,3.119-0.949,4.339-1.356h0.407c0.949-0.271,1.898-0.407,2.983-0.542
			l0.542-0.136l0.542,0.136c0.271-0.136,0.542-0.136,0.813-0.136c0.949,0,0.678,0,1.492-0.135l0.678,0.135
			c2.577-0.135,1.627,0,3.119-0.271l0.542,0.271c3.525,0,0.271-0.135,3.254-0.135c0.542,0.135,0.271,0.135,1.356,0.135
			c0,0,0,0,0.136,0v-0.271c1.22,0.271,0.949,0.271,1.22,0.271c0.678,0,1.085,0.814,0.542,1.221
			c-0.542,0.678-0.542,1.085-0.813,1.898l-0.407,1.085c-0.678,3.119-0.542,5.56-0.407,8.272l-0.136,0.542v2.848l0.271,0.678
			c-0.407,2.983-0.271,0.813-0.271,3.119l0.271,0.813c-0.407,1.898-0.271,0.542-0.271,5.967l0.136,0.678
			c-0.271,1.085-0.271,1.085,0,2.577c-0.271,1.22-0.136,0-0.136,7.729v0.271v0.271c0,3.119,0,0.542,0.136,3.661
			c-0.271,0.949-0.136,0.542-0.136,1.763l0.136,0.814l-0.136,0.678c0,8.95-0.136,7.729,0,8.543c-0.136,0.542,0,0.135,0,2.305v0.407
			c-0.136,0.678,0,0.271,0,1.898l0.136,0.678l-0.136,0.678c0,3.119-0.136,2.441,0.136,3.39c-0.136,0.542-0.136,0.407,0,2.034
			l0.271,0.678c0,1.492,0,1.356,0.678,2.712v0.678c0.271,0.813,0.407,0.949,0.678,1.084c0.136,0.271,0.271,0.542,0.271,0.678
			l0.135,0.271L711.954,618.324z M701.105,567.744c0-0.407,0-0.271,0-2.169l-0.135-1.221c0.271-1.492,0.135-0.271,0.135-6.238
			c-0.135-0.949,0-0.542-0.271-1.627c-0.136,0,0,0-0.136,0l-0.678-0.407c-0.136,0-2.306,0.136-4.068,0.542
			c-3.119,0.813-1.763,0.813-3.119,0.813c-0.814,0.407-1.627,0.814-2.441,1.221l-0.542,0.542c-1.356,0.678-0.949,0.542-1.763,0.813
			c-0.271,0.271-0.542,0.407-0.813,0.678l-0.542,0.678c-1.356,0.814-1.084,0.678-1.356,0.814c-1.085,1.084-2.034,2.305-2.848,3.525
			l-0.271,0.542c-0.814,0.949-0.814,0.813-1.356,2.305l-0.678,0.678c-1.492,2.848-2.577,6.102-2.577,6.509
			c-0.136,0.271-0.136,0.407-0.542,1.627l-0.135,0.949l0.407,1.085l1.084,0.271c0.542-0.135,0.814-0.407,1.356-0.813l0.678-0.136
			c5.424-2.712,4.611-2.305,5.289-2.712l0.542-0.136c1.492-0.813,1.085-0.542,1.898-1.085l0.407-0.135
			c1.898-0.949,1.492-0.678,1.898-1.085c0.678-0.136,0.271,0,1.763-0.678l0.542-0.542l0.678-0.135
			c2.848-1.356,2.305-1.085,2.983-1.492c0.542-0.271,0.136,0,1.763-0.813l0.542-0.542c0.949-0.271,0.949-0.271,1.356-0.407
			C700.834,568.015,700.563,568.286,701.105,567.744z"/>
		<path id="XMLID_35_" style="fill:#594F50;" d="M759.822,618.188c-0.136,0.542-0.678,0.407-1.356,0.407l-0.678,0.271l-0.678-0.271
			c-1.356,0-0.949,0-1.898,0.271c-1.085-0.271-0.543-0.271-1.898-0.271c-1.628,0.271-0.407,0-3.254,0.271l-0.814-0.271
			c-5.966,0-0.678,0-4.475,0.135l-1.356,0.136c-1.492-0.271-0.949-0.136-2.576-0.136c-0.542-0.135,0.271-0.135-5.967-0.135
			l-0.542,0.271c-1.627-0.136-1.22-0.136-1.763-0.271c-9.221,0-8.408,0-8.679,0.135l-0.271-0.135h-2.441v0.135h-1.22l-0.136-0.135
			c-0.678,0-0.949-0.814-0.542-1.221c0.949-0.678,1.492-3.797,1.627-4.882c-0.136-1.22-0.136-0.678,0-2.441l0.271-0.542
			c0-0.407,0-2.034,0-2.169s0,0.136,0-2.17v-0.407c0-0.407,0,0.136,0-3.661c0-0.407,0-0.136-0.135-1.627
			c0.135-1.085,0.135-0.407,0.135-3.119l-0.271-0.814l0.271-1.356l-0.271-1.356l0.271-0.678v-2.848
			c-0.135-0.542-0.135-0.135-0.135-1.763l0.135-0.813c0-2.441,0-1.763-0.135-3.119c0.135-0.407,0.135,0,0.135-2.034l-0.271-0.542
			c0.271-2.983,0.271-2.848,0.271-7.458l-0.135-0.542l0.135-0.407v-2.983l-0.135-0.542c0.135-1.356,0.271-1.627-0.136-3.933
			l0.271-1.356l-0.271-1.356l0.271-0.678v-1.22l-0.135-0.678c0-1.627,0-1.084,0-2.712c0.135-1.627,0.135-1.356,0.135-1.627
			c-0.135-1.763-0.271-1.898-0.407-2.441c-0.271-1.763-0.135-1.084-0.678-2.712c-0.678-1.492-0.542-1.085-0.678-1.763
			c-0.542-0.542-0.136-1.356,0.542-1.356h1.22c0,0,0.271,0,0.407,0c1.084,0,0.678,0,2.169-0.271l0.542,0.271
			c2.17,0,1.085,0,3.119-0.135c1.627,0.135,1.084,0.135,2.576,0v0.135h1.356c0.271,0,0.542,0.136,0.678,0.407v0.135
			c0.136,0.271,0,0.542-0.136,0.814c-0.407,0.407-0.407,0.271-0.678,1.763c-0.814,2.441-0.949,2.577-1.085,4.61l0.136,0.814
			c-0.271,1.627-0.136,1.085-0.136,2.712c-0.136,0.678-0.136,0.136-0.136,3.119l0.271,0.813c-0.271,1.22-0.271,0.542-0.271,2.983
			l0.271,0.949c-0.136,1.627,0,1.22-0.271,1.898c0,3.526,0,2.848,0.136,3.526c-0.136,0.678-0.136-0.407-0.136,7.322l0.136,0.542
			c-0.136,1.898-0.136,0.678-0.136,5.695l0.271,0.95c-0.136,3.525-0.271,1.763,0,3.932l-0.271,1.221c0,1.763,0.136,0.542,0,2.441
			c0,2.441,0,1.898,0.271,2.983c-0.136,1.627-0.136,1.084,0,2.712l-0.271,0.542v3.526c0.271,1.491,0.271,1.084,0.271,5.153
			l0.813,0.813l1.22-0.136l0.678,0.271h4.068c0.542-0.136,0.271-0.136,1.763-0.271c1.492,0.407,0.813,0.271,3.933,0.136
			c1.492,0,0.949,0,2.576-0.136l1.085,0.271c3.39,0,2.577,0,4.068-0.136l0.542,0.136c3.255,0,0.271,0,3.391-0.136
			c1.491,0,1.084,0,1.898,0.136h0.678c0.406,0,0.813,0.271,0.949,0.813l0.271,0.136l-0.136,1.085c0,1.084,0.271,2.305,0.542,3.39
			l0.407,0.542v0.678c0.406,0.678,0.542,0.813,0.678,1.085C759.958,617.646,759.958,617.917,759.822,618.188z"/>
		<path id="XMLID_38_" style="fill:#594F50;" d="M819.354,548.624c-0.949,0.542-1.763,2.305-2.169,3.254v0.813l-0.543,1.221
			c-0.813,2.441-0.678,1.492-0.949,2.576l0.136,0.136l-0.136,0.136l0.271,0.136h-0.271h0.136l-0.407,0.949
			c-0.135,0.949-0.135,0.542-0.135,1.627c-0.949,3.254-0.814,2.17-0.814,3.933c-0.678,1.356-0.406,0.407-1.355,4.61
			c0.136,0.678,0.136,0.271-0.136,1.763c-0.407,0.949-0.136-0.136-1.763,6.78c0,1.22,0,0.678-0.271,2.305l-0.406,1.22
			c-0.543,2.983,0-0.271-1.085,4.475l0.135,0.678l-0.406,0.813c-3.797,17.086-2.034,8.814-2.712,13.425
			c-0.543,1.492-0.407,0.949-0.679,2.577c-0.813,3.254-0.813,1.898-0.813,3.797c-0.406,1.627-0.271,1.085-0.678,2.577
			c-0.407,1.627-0.407,0.949-0.542,2.576c-0.543,1.492-0.407,0.949-0.543,2.577c-0.406,2.305,0,0.542-0.949,3.933l-0.136,0.136
			c-0.271,0.542-0.813,0.949-1.355,0.949h-0.814l-0.542,0.135c-0.678-0.135-0.271-0.135-1.763-0.135l-0.813,0.271l-1.085-0.271
			c-2.712,0-2.306,0-2.712,0h-0.271c-2.441,0-2.577,0.135-3.119-0.271h-0.136l-0.136-0.136c-0.406-0.407-0.406-0.678-0.542-1.627
			c-0.136-0.407,0-0.136-0.543-1.492v-0.678l-0.813-3.661l-0.406-0.678l0.135-0.678l-0.271-1.492l-0.271-0.271l-0.136-1.356
			l-1.491,6.78v0.678l-0.271,1.356l-0.407,0.813l-0.271,1.492c-0.136,0.813-0.813,1.221-1.492,1.221c-1.898,0-1.221,0-2.576,0.271
			c-1.627-0.136-1.085-0.136-2.306-0.271c-2.576,0-2.034,0-2.848,0.135l-0.406-0.135h-1.764l-0.406,0.135l-0.136-0.135
			c-0.678,0-1.221-0.542-1.356-1.221c-0.135-0.813,0-0.542-0.271-1.22v-0.407c-1.221-5.017-1.085-4.61-1.085-4.746
			c-0.543-1.492-0.407-0.949-0.813-2.576l0.136-0.678c-0.679-2.983-0.136-0.407-0.814-3.119v-0.407l-0.678-2.848l-0.406-0.678
			c0.135-1.221,0.135-0.271-0.679-4.339l-0.406-0.814v-0.813c-0.679-3.39-0.543-2.712-1.085-4.339v-0.949
			c-1.356-5.56-1.085-4.746-1.356-5.424c-0.136-1.084,0-0.407-0.678-3.119l-0.271-0.814l0.136-0.407l-0.407-1.492l-0.406-0.542
			c-0.271-2.983,0-1.492-0.678-4.611c-0.543-0.813-0.271-0.407-0.679-1.898v-0.813l-0.136-1.085l-0.406-0.678
			c-0.271-1.627-0.271-1.22-0.271-1.898l-0.271-1.356l-0.406-0.678c-0.136-1.898,0-1.084-0.543-3.525
			c-0.135-0.407,0-0.136-0.542-1.627c-0.136-1.492,0-0.949-0.542-2.576h0.135v-0.136l-0.135-0.136v-0.136
			c-0.271-1.763-1.764-6.509-3.255-7.594l-0.271-0.136l-0.542-0.949l0.813-0.813c1.221,0.271,0.271,0.271,5.018,0.271
			c0.271-0.135,0-0.135,1.355,0c2.983,0,2.577,0,2.712,0c1.492-0.135,1.221-0.135,1.492,0c1.085,0,1.491-0.135,1.763,0.271
			c0.136,0.271,0.136,0.542,0.136,0.813v0.136l-0.271,0.271c-0.136,0.271-0.136,0.678-0.271,0.949c0,0.542,0,0.136,0.135,1.627
			c-0.271,1.627-0.271,1.085,0.136,2.577c0.136,1.492,0,0.949,0.407,2.441c0.271,1.492,0.271,1.084,0.136,1.898
			c0.136,0.135,2.44,10.984,2.712,11.797l0.271,0.542c0.678,4.068-0.543-1.356,1.084,5.831l0.407,0.678
			c0.136,1.627,0,1.084,0.542,2.576l-0.135,0.542l0.678,2.983l0.271,0.407c0.406,1.627,0.271,1.221,0.271,1.898
			c0.407,2.034,0.407,1.763,0.543,2.034c0,0.542,2.983,13.696,3.254,15.052l0.271,0.542v0.542c0.136,0.813,0.136,0.813,0.136,0.949
			h0.407l0.406-0.136c0.678-3.254,0.543-2.441,0.678-4.068c0.543-1.627,0.271-0.678,0.949-3.933l0.271-0.542
			c1.221-5.56,0.407-3.662,1.356-5.831c0-0.136,0.949-4.204,0.949-4.204c-3.797-16.679-3.255-14.51-3.797-15.73l0.136-0.813
			c-0.136-0.407-1.898-8.272-2.034-9.085l-0.407-0.678v-0.813c0-0.136-0.406-1.763-0.406-2.034h-0.136v-0.136
			c0-0.407-0.407-1.898-0.543-2.169l-0.271-0.407c-0.407-1.491-0.407-1.763-1.085-3.119c-0.814-0.813-0.407-0.407-1.221-1.763
			l-0.543-0.407v-0.271c-0.271-0.407-0.135-1.085,0.271-1.221l0.136-0.135c2.576,0.135,2.441,0.135,7.458,0.135l0.407-0.135
			c1.355,0.135,1.221,0.135,1.355,0.135c1.899,0,1.356,0,2.441-0.135c0.136,0,0.678,0.271,0.678,0.407v0.136
			c0.136,0.135,0.136,0.407,0.136,0.542v0.271l-0.271,0.136c-0.271,0.542-0.406,2.034-0.406,2.712
			c0.136,1.763,0.136,2.712,0.542,5.018c0.136,0.542,0,0.271,0.407,1.22v0.678c1.085,5.017,0.406,1.492,1.085,4.61
			c0.406,1.492,0.271,1.085,0.678,2.17c0.407-1.763,0.271-1.356,0.271-2.17l0.406-1.356l0.136-1.356l0.407-0.678
			c0.271-1.356,0.271-0.949,0.136-1.898c0.542-1.22,0.813-1.763,0.949-4.882c0-1.492,0-1.22,0-1.763c0-0.678,0-1.898-0.407-2.577
			c-0.271-0.407,0-1.085,0.542-1.085l0.136-0.271l1.221,0.136c0.813,0.135-0.407,0.135,8.814,0.135c0.407-0.135,0.136,0,1.627-0.271
			l0.136,0.271c0.271,0.136,0.407,0.271,0.407,0.542c0.136,0.271,0,0.678-0.271,0.814c-0.271,0.135-0.406,0.271-0.542,0.407
			c-0.271,0.407-0.679,0.949-0.949,1.627l-0.136,0.814c-0.949,1.356-0.813,0.949-1.085,2.576c-0.813,2.306-0.542,1.221-0.949,2.712
			h0.136v0.136h-0.136h0.136l-0.271,0.542l-1.491,7.052c-0.136,0.813,0-0.407-1.085,4.746c-0.136,1.085-0.136,0.542-0.407,2.169
			c-0.271,1.627-0.136,1.085-0.406,2.712c-0.543,1.492-0.407,0.949-0.679,2.576l-0.271,1.356l-0.407,0.542
			c-1.356,5.966-0.678,2.712-1.085,5.966l-0.271,0.678l-0.271,0.678c0.678,2.712,0.542,2.306,0.678,2.577
			c0.407,1.627,0.136,1.085,0.813,2.577v1.084c0.271,1.356,0.136,0.949,0.407,1.627c0.542,2.712,0.542,2.983,0.949,4.068
			c0.271,1.627,0.136,0.949,0.678,2.576c0.136,1.627,0.136,1.356,0.678,4.068c0,0.271,0.271,0.407,0.407,0.271
			c0.136-0.407,0.136-0.135,0.542-0.949c1.492-6.916,1.356-5.56,1.356-7.187c0.678-3.119,0.271-0.949,0.949-3.933l0.271-0.542
			l0.542-2.576c0-0.949,0-0.407,0.271-2.034c0.542-1.627,0.406-0.949,0.678-2.577l0.136-0.407l0.678-2.712v-0.814l0.271-1.22
			l0.271-0.542l0.406-1.627c0-0.678-0.136-0.271,0.136-1.763l0.407-0.949c0.406-1.356,0.271-1.085,0.406-1.627
			c0.136-0.678-0.135,0.407,1.898-8.271l-0.135-0.949c1.22-3.933,0.135,0.813,1.627-6.103v-0.271
			c0.136-0.678,0.271-0.813,0.542-2.305c0.136-1.221,0.407-1.356,0.271-5.424c0-0.407-0.136-0.949-0.271-1.356l-0.271-0.136
			l-0.136-1.085h0.406c0.271-0.271,0.271-0.136,2.306-0.136l0.813-0.271c1.898,0.407,0.813,0.136,3.797,0.136
			c3.255-0.136,0.949,0,3.933-0.136c1.085,0.271,0.813,0.271,1.356,0.271C819.761,547.403,819.896,548.217,819.354,548.624z"/>
		<path id="XMLID_44_" style="fill:#594F50;" d="M867.495,618.324c-0.407,0.407-0.678,0.271-1.221,0.271l-0.678,0.271l-0.678-0.271
			h-8.272h-1.22c-0.679,0-1.085-0.814-0.543-1.356c0.407-0.407,0.813-1.492,0.949-2.169v-0.813c0.407-1.492,0.407-1.085,0.678-4.068
			c0.136-0.407,0.136,0,0.136-4.068c-0.271-1.491-0.271-0.813-0.136-2.44l0.136-0.678v-1.221l-0.271-0.813l0.271-0.678v-1.492
			c-0.542-2.034,0.136-2.441-0.271-8.408l0.271-0.813v-1.221c-0.271-2.305-0.271-1.492-0.136-3.119c0-1.627,0-1.085,0-2.712
			c0.136-1.627,0.136-0.949-0.135-2.576l-0.271-0.678h-0.813c-1.492,0.407-0.949,0.136-2.306,1.221l-0.813,0.135
			c-1.492,0.678-1.085,0.542-1.627,0.949c-0.407,0,0-0.135-2.034,0.814l-0.407,0.407c-0.949,0.271-0.271,0-4.204,2.034l-0.542,0.407
			l-0.678,0.135c-3.119,1.492,0,0-2.983,1.627c-1.356,0.678-0.949,0.542-2.034,0.949c-2.712,1.221-0.949,0.542-3.797,2.17
			c-1.627,0.407-1.085,0.271-2.576,0.949l-0.543,0.813c0,2.034,0.136,1.492,0.136,3.933c0,2.712-0.136,0.136-0.136,3.254
			l0.271,0.678l-0.136,1.356l0.136,1.22l-0.271,0.678c0,6.645,0.136,2.034,0.271,5.831l-0.271,0.678
			c0.136,1.898,0.678,6.509,1.898,7.729c0.407,0.542,0.136,1.356-0.542,1.356h-0.949c-0.679,0.135-1.492,0.135-4.204,0.271
			l-0.542-0.271h-1.356l-0.542,0.271l-0.679-0.271c-3.39,0-2.848,0-3.118,0h-0.136c-0.271,0-0.543-0.136-0.679-0.407
			c-0.136-0.542,0.271-0.949,0.407-1.084c0-0.407,0-0.136,0.678-1.627c0.136-1.627,0-1.085,0.543-2.441
			c0.271-1.22,0.271-2.441,0.406-3.254l-0.271-1.085l0.271-0.678c0-2.034,0-1.763,0-2.034c0-0.949,0,0,0-4.746l-0.136-0.678
			c0.136-1.492,0.136-1.221,0.136-1.492c0-3.39,0-2.577-0.271-3.797l0.271-0.949c0-1.221,0-0.813-0.136-1.763l0.136-0.678v-2.034
			c0-1.085,0-0.542,0-1.22v-0.407c0.271-3.662,0.271-0.814,0.271-4.339l0.271-0.678c0.136-1.356,0.406-2.712,0.813-4.61
			c0.271-2.17,0.406-2.17,0.813-3.39c0,0,0.542-1.763,1.085-3.526c0.136-1.492,0.406-1.763,0.813-2.712
			c0.678-1.356,0.407-0.95,0.949-1.763c0.136-0.271,0.271-0.542,0.407-0.813l0.135-0.949c1.492-1.763,0.271-0.271,2.17-3.254
			l0.136-0.271c1.221-1.763,0.813-0.813,1.221-2.169c1.763-1.763,1.763-1.898,2.712-2.983c1.085-1.085,0.813-0.814,1.491-1.356
			c1.085-0.949,2.17-1.898,3.391-2.712l0.271-0.271h0.136c1.491-0.949,1.763-0.949,2.033-1.356l0.407-0.136
			c2.306-1.221,1.221-0.407,3.119-1.627h0.813c2.44-0.949,3.119-0.949,4.339-1.356h0.407c0.949-0.271,1.898-0.407,2.983-0.542
			l0.542-0.136l0.543,0.136c0.271-0.136,0.542-0.136,0.813-0.136c0.949,0,0.678,0,1.491-0.135l0.679,0.135
			c2.576-0.135,1.627,0,3.118-0.271l0.543,0.271c3.525,0,0.271-0.135,3.254-0.135c0.543,0.135,0.271,0.135,1.356,0.135
			c0,0,0,0,0.136,0v-0.271c1.221,0.271,0.949,0.271,1.221,0.271c0.678,0,1.085,0.814,0.542,1.221
			c-0.542,0.678-0.542,1.085-0.813,1.898l-0.407,1.085c-0.678,3.119-0.542,5.56-0.406,8.272l-0.136,0.542v2.848l0.271,0.678
			c-0.407,2.983-0.271,0.813-0.271,3.119l0.271,0.813c-0.407,1.898-0.271,0.542-0.271,5.967l0.136,0.678
			c-0.271,1.085-0.271,1.085,0,2.577c-0.271,1.22-0.136,0-0.136,7.729v0.271v0.271c0,3.119,0,0.542,0.136,3.661
			c-0.271,0.949-0.136,0.542-0.136,1.763l0.136,0.814l-0.136,0.678c0,8.95-0.136,7.729,0,8.543c-0.136,0.542,0,0.135,0,2.305v0.407
			c-0.136,0.678,0,0.271,0,1.898l0.136,0.678l-0.136,0.678c0,3.119-0.136,2.441,0.136,3.39c-0.136,0.542-0.136,0.407,0,2.034
			l0.271,0.678c0,1.492,0,1.356,0.678,2.712v0.678c0.271,0.813,0.406,0.949,0.678,1.084c0.136,0.271,0.271,0.542,0.271,0.678
			l0.136,0.271L867.495,618.324z M856.646,567.744c0-0.407,0-0.271,0-2.169l-0.136-1.221c0.271-1.492,0.136-0.271,0.136-6.238
			c-0.136-0.949,0-0.542-0.271-1.627c-0.136,0,0,0-0.136,0l-0.679-0.407c-0.135,0-2.305,0.136-4.067,0.542
			c-3.119,0.813-1.764,0.813-3.119,0.813c-0.813,0.407-1.628,0.814-2.441,1.221l-0.542,0.542c-1.356,0.678-0.949,0.542-1.763,0.813
			c-0.271,0.271-0.543,0.407-0.813,0.678l-0.543,0.678c-1.355,0.814-1.085,0.678-1.355,0.814c-1.085,1.084-2.034,2.305-2.848,3.525
			l-0.271,0.542c-0.813,0.949-0.813,0.813-1.356,2.305l-0.678,0.678c-1.492,2.848-2.576,6.102-2.576,6.509
			c-0.136,0.271-0.136,0.407-0.543,1.627l-0.136,0.949l0.407,1.085l1.085,0.271c0.542-0.135,0.813-0.407,1.355-0.813l0.679-0.136
			c5.424-2.712,4.61-2.305,5.288-2.712l0.543-0.136c1.491-0.813,1.084-0.542,1.898-1.085l0.406-0.135
			c1.898-0.949,1.492-0.678,1.898-1.085c0.678-0.136,0.271,0,1.763-0.678l0.543-0.542l0.678-0.135
			c2.848-1.356,2.306-1.085,2.983-1.492c0.542-0.271,0.136,0,1.763-0.813l0.543-0.542c0.949-0.271,0.949-0.271,1.355-0.407
			C856.376,568.015,856.104,568.286,856.646,567.744z"/>
		<path id="XMLID_47_" style="fill:#594F50;" d="M919.704,548.217c-0.136,0.271-0.271,0.407-0.542,0.542l-0.136,0.136l-0.407,0.136
			l-1.085,0.407c-1.084,0.813-2.44,2.305-3.525,3.526l-0.542,0.813c-0.679,0.407-0.271-0.136-3.933,4.475l-0.271,0.678l-0.949,0.678
			c-1.763,2.169-1.492,1.763-1.627,2.169l-0.543,0.542c-2.712,3.39-2.305,2.712-2.712,3.526l-0.407,0.271
			c-1.22,1.492-0.949,1.085-1.355,1.763c-1.085,0.949-1.085,1.22-1.492,2.034h-0.271c0,0.135,0,6.373,0,6.509
			c0.136,0.407,0,0,0.271,1.627c-0.135,1.627,0,1.084-0.271,2.169c0,1.763,0,1.356,0,1.898c0.271,1.627,0.271,0.949,0.136,2.577
			c-0.136,0.949-0.136,0.407-0.136,2.169l0.136,0.542c-0.136,1.356-0.136,0.949-0.136,1.627c0.136,1.356,0.136,0.813,0,2.305
			c0,5.153,0,4.068,0.136,5.424c0,1.627,0.135,1.22-0.136,2.034v4.204l0.136,0.407c-0.136,3.119-0.271,2.034,0,4.068
			c-0.136,0.949-0.136,0.678-0.136,1.356c0,0.407,0,0.271,0.136,0.949l-0.136,0.271c0.136,1.627,0.136,1.627,0.136,2.577
			l0.406,0.949v1.22l0.543,1.221v0.136c0,0.135,0,0.135,0.135,0.135h0.136v0.271c0,0.135,0.136,0.407,0.136,0.542
			c0.136,0.813-0.542,1.627-1.491,1.627v0.136v-0.136h-2.441c-0.136,0-6.237,0-6.237,0v0.136l-0.136-0.136
			c-0.949,0-1.628-0.813-1.492-1.627c0.136-0.136,0.271-0.542,0.407-0.814c0-0.135,0-0.135,0-0.271l0.542-0.813
			c0.136-0.542,0.271-1.221,0.271-1.763c0.271-2.169,0.271-1.356,0.271-2.576h-0.136l0.136-0.678c0.136-2.305,0-2.848-0.136-4.068
			c0.271-1.491,0.271-0.949,0-3.932l0.271-0.678c0-2.034,0-1.627-0.136-2.034c0.136-0.542,0.136-0.136,0.136-1.898l-0.271-0.813
			c0-1.627-0.136-1.085,0.271-2.305c0-2.034,0-1.356-0.271-2.983c0.271-4.339,0.271-1.221,0.271-4.882l-0.271-0.542
			c0.271-1.492,0.271-1.22,0-2.712l0.271-0.949c0-2.577,0-1.898-0.136-2.983c0.136-0.542,0.136,0.271,0.136-5.831l-0.271-0.813
			l0.271-1.085c0-1.356,0-0.949-0.136-1.627l-0.136-0.135c-1.221-1.899-0.542-1.085-2.034-2.712l-0.407-0.407
			c-1.763-2.305-0.135-0.407-1.898-2.441l-0.678-0.407c-0.678-1.221-0.136-0.542-2.17-3.119c-1.084-1.084-0.949-0.949-1.491-1.627
			c-1.898-2.441-1.627-2.034-1.898-2.305l-0.136-0.407c-1.356-1.492-0.949-1.084-1.627-1.627c-1.221-1.356-0.813-0.949-1.898-2.17
			c-0.679-0.813-1.356-1.627-2.848-2.983c-0.271-0.135-0.813-0.678-1.221-0.813c-0.543-0.271-1.085,0-1.221-0.678h-0.271
			l0.136-0.136c0-0.271,0.136-0.542,0.271-0.678c1.221,0,0.949,0,1.356-0.136c1.627-0.135,1.085-0.135,2.712,0
			c0.678,0.136,0.136,0.136,3.119,0.136l0.949-0.271c1.627,0.271,0.949,0.135,2.712,0.135c2.44,0.271,0.406,0,3.933,0l0.136,0.136
			c0.135,0,0.135,0,0.271,0h0.136l-0.136,0.136c0.136,0,0.136,0,0.136,0c0.136,0,0.136,0,0.136,0c0,0.136,0,0.136,0,0.136h0.136
			h0.136c0,0,0,0,0,0.135c-0.136,0.136,0,0.136-0.136,0.271c0,0,0,0,0,0.136h0.136l-0.136,0.135c0,0.678,0.271,1.221,1.085,2.983
			l0.271,0.813c0.814,1.492,1.085,1.763,1.764,2.577v0.271c0.136,0,0.136,0,0.136,0.136l0.135,0.136
			c1.221,1.492,0.679,0.949,2.17,2.305c1.221,1.356,0.813,0.949,1.627,2.17c0.543,0.678,0.136,0.407,0.949,1.084l0.136,0.271
			c0.136,0,0.271-0.136,0.407-0.136c0.542-0.678,0.406-0.542,0.678-0.949c0.271-0.271-0.136,0.136,2.577-2.983
			c0.406-0.813,0.135-0.407,1.355-1.763c0.271-0.813,0-0.136,1.627-2.848l0.679-0.678c0.271-0.542,0.542-1.085,0.813-1.627
			l0.136-1.356l0.271-0.407l-0.271-0.135h0.136c0-0.136,0.135-0.136,0.135-0.271c-0.135,0-0.135,0-0.135,0h0.135
			c0-0.136,0-0.136,0-0.271c0.136,0,0.136,0,0.136,0c0-0.136,0.136-0.136,0.136-0.136v-0.136c0,0,0,0,0-0.136c0,0,0,0,0.136,0
			l0.136,0.136c0.136,0,0.136,0,0.678,0l0.813-0.271l0.813,0.271c1.764,0,1.356,0,1.899-0.136c0.406,0.136-0.543,0.136,7.051,0.136
			l0.949-0.271c1.763,0.271,1.085,0.271,2.712,0.271c0.136,0.136,0.271,0.271,0.271,0.542l0.136,0.271H919.704z"/>
		<path id="XMLID_66_" style="fill:#594F50;" d="M956.997,596.899c-0.271,1.627-0.271,1.084-0.136,2.712l-0.271,1.22l-0.271,0.678
			c-0.271,1.22-0.679,2.577-1.221,3.797v0.678c-0.813,1.22-0.543,0.678-1.898,3.39c-1.085,1.356-0.678,0.949-1.492,1.627
			c-0.542,0.542-1.084,1.085-1.627,1.627l-0.406,0.813l-0.679,0.136c-0.678,0.542-1.355,1.085-2.034,1.492l-0.542,0.678
			c-1.492,0.678-0.813,0.542-2.441,1.085c-2.033,0.678-2.169,0.814-3.254,1.085l-0.407,0.271c-1.221,0-0.406,0-1.763,0.136
			l-0.813,0.407l-1.356,0.136l-0.949-0.271c-0.678,0-1.355,0-2.169,0l-0.814,0.135c-1.627-0.407-1.22-0.271-1.898-0.542
			c-1.355-0.271-0.678-0.271-2.034-0.271c-4.746-2.034-6.237-3.526-6.915-3.933h-0.136c-0.543-0.542-1.085-0.949-1.628-1.492
			c-0.271-0.271,0,0-1.22-1.085c-0.813-1.22-0.679-1.084-0.813-1.22c-0.407-0.542-0.814-1.22-1.221-1.898
			c-0.271-0.136,0,0-1.085-1.085c-0.407-1.492-0.407-1.22-0.407-1.763c-0.678-1.492-0.542-1.492-0.813-2.034l-0.136-0.271
			c-0.542-2.034-0.135-1.356-0.678-2.306c0-2.034,0-1.084-0.136-2.712l-0.271-1.22c0.271-1.627,0.136-0.949,0.271-2.577
			s0-1.085,0.407-2.712c1.085-2.034,0.271-0.678,1.221-2.983l0.135-0.678l0.407-0.542c0.813-1.763,0.542-0.949,0.813-1.763
			c0.678-0.678,0.136-0.136,1.221-1.627l0.271-0.678c1.763-2.034,0.271-0.271,2.848-2.983l0.135-0.542l0.271-0.271
			c0-0.136,0.136-0.407,0.271-0.407h0.136c0.271-0.135,0.542-0.135,0.813,0l0.949,0.814l0.136-0.136l-0.136,0.136l0.678,0.542
			c0.407,0.135,0.136,0,1.356,0.678l0.678,0.949c1.763,1.356,1.356,1.085,2.034,1.492c0.136,0.136,0.136,0.136,0.136,0.136v-0.136
			l0.136,0.271l0.813,0.542c0.542,0.542,0.271,1.356-0.407,1.492c-1.22,0-4.067,2.848-4.746,4.475
			c-0.813,1.356-0.678,1.221-0.813,1.356c-0.949,2.305-1.085,4.611-0.949,5.153c0.271,1.491,0.271,0.949,0.136,2.305
			c0.271,1.492,0.678,2.576,0.813,2.712c0.678,1.356,0.543,0.949,0.678,1.492c0.271,0.542,0.679,0.949,0.949,1.492
			c0.814,0.678,0.271,0.407,1.492,1.492l0.678,0.407l0.407,0.542c0.949,0.678,2.034,1.356,3.118,1.763
			c1.085,0.136,0.679,0,1.899,0.542c0.949,0.136,1.763,0.271,2.712,0.271c0.813,0,0.678,0,1.355-0.271
			c1.628,0,1.085,0.136,2.712-0.542h0.543c1.491-0.542,2.712-1.356,3.933-2.305c0.813-1.085,1.491-1.627,1.627-1.898
			c1.085-1.22,1.898-2.712,2.306-4.339c0-1.221,0-0.678,0.542-3.661c0-2.034-0.406-2.983-1.491-5.153
			c-0.271-0.813-1.763-2.848-2.306-3.39l-0.136-0.271c-0.406-0.407-0.813-0.813-1.22-1.221l-0.679-0.271l-0.406-0.678
			c-0.813-0.813-0.813-0.813-1.492-0.949l-0.271-0.542l-0.542-0.407l-0.136,0.136l-0.406-0.542c-4.34-3.39-3.526-2.848-4.611-3.254
			l-0.542-0.678c-1.763-1.356-5.153-4.068-6.373-5.017l-0.136,0.135l-0.136-0.271c-1.085-0.813-0.543-0.678-1.085-0.949
			c-1.221-1.085-0.813-0.678-1.898-1.898c-0.949-1.085-0.678-0.678-2.306-3.119c-0.406-1.492-0.271-1.22-1.085-2.441l-0.135-0.813
			c-0.271-1.492,0-0.542-0.407-1.763v-1.356c0-0.271,0-0.542,0-0.949l-0.136-0.542l0.407-0.949c0.136-0.949,0.271-1.898,0.678-2.848
			l0.271-1.221c0.813-1.356,0.542-0.813,1.355-2.169c0.949-1.221,0.679-0.949,1.221-1.356c1.763-1.898,3.119-2.441,3.525-2.983
			c1.356-0.678,1.221-0.542,1.492-0.678c0.406-0.136,0.949-0.407,1.491-0.542l0.679-0.407c1.491-0.136,1.22-0.136,1.491-0.136
			c1.763-0.271,3.525-0.136,5.289,0.136h0.949c1.22,0.813,0.542,0.407,1.627,0.813l0.813,0.136c2.306,1.492,5.831,3.526,7.594,8.679
			l0.407,0.407l-0.136,0.678c0.271,0.678,0.407,1.356,0.407,2.169h0.135v0.136c0.136,0.136,0.136,0.407,0.407,0.678
			c0.271,0.135,0.271,0.407,0.136,0.678l0.136,0.136h-0.136c-0.136,0.271-0.407,0.407-0.678,0.407h-1.221c0,0,0,0-0.136,0v0.271
			c-2.441-0.407-0.678-0.135-4.34,0l-0.542-0.271h-1.627l-0.679,0.271l-0.135-0.271c-0.543-0.136-0.814-0.813-0.407-1.22v-0.136
			v0.136c0.813-0.814-0.543-2.712-1.221-3.526l-1.085-0.542l-0.542-0.542c-0.271-0.136-0.543-0.271-0.949-0.407h-0.543l-0.542-0.136
			c-4.61-0.542-7.322,4.068-6.509,6.645l0.271,0.542l0.136,0.407c0.271,0.542,0.813,1.221,1.356,2.034l0.813,0.542l0.136,0.542
			c0.678,0.542,1.898,1.763,2.44,2.17l1.221,0.678v0.271h0.136v0.135v-0.135c1.221,1.084,0.949,0.813,1.221,1.084
			c1.627,1.356,1.22,1.085,1.898,1.356c1.355,0.949,0.949,0.542,2.034,1.627c1.22,1.085,0.949,0.949,2.169,1.492
			c1.492,1.492,0.949,0.949,2.441,2.305l0.678,0.136l0.949,0.813l-0.136,0.136c0,0,0,0,0.136,0c1.492,1.22,0.949,1.085,2.034,1.627
			l0.407,0.678c0.949,1.085,0.406,0.542,1.355,1.221c0.813,1.356,0.543,0.813,1.898,2.712l0.543,0.407
			c0.813,1.356,0.678,0.949,0.949,2.17c0.542,0.813,0.136,0.271,0.813,1.356l0.136,0.542c0.678,1.627,0.271,0.813,0.949,1.898
			c0,1.085-0.136,0.271,0.271,1.763l0.407,0.813c-0.271,2.17,0,0.407,0,2.712L956.997,596.899z"/>
	</g>
	<path id="XMLID_50_" style="fill:#594F50;" d="M569.208,709.693h-25.046v-15.137h4.818l11.864-32.956h-5.091v-15.137h45.456V661.6
		h-5.091l12.091,32.956h4.636v15.137h-33.001v-13.864h5.545l-2.409-7.955h-16.182l-2.773,7.955h5.182V709.693z M575.163,662.509
		l-5.955,17.501h11.318L575.163,662.509z"/>
	<path id="XMLID_53_" style="fill:#594F50;" d="M689.121,687.919h-6.455v-12h28.274c0,6.909-0.485,12.046-1.455,15.41
		c-0.94,3.243-2.909,6.531-5.91,9.864c-2.939,3.304-6.5,5.713-10.682,7.228c-4.182,1.515-8.667,2.273-13.455,2.273
		c-7.122,0-13.591-1.182-19.41-3.545c-5.849-2.303-10.364-6.121-13.546-11.455c-3.212-5.242-4.818-11.121-4.818-17.637
		c0-9.849,3.243-17.789,9.728-23.819c6.424-6.03,14.303-9.045,23.637-9.045c7.788,0,13.894,1.894,18.319,5.682v-4.409h15.228v22.092
		h-15.228c-1.334-2.728-3.068-4.788-5.205-6.182c-2.136-1.394-4.629-2.091-7.478-2.091c-4,0-6.94,1.303-8.818,3.909
		c-1.849,2.606-2.773,7.395-2.773,14.364c0,6.939,0.97,11.652,2.909,14.137c1.97,2.516,4.833,3.773,8.591,3.773
		C686.272,696.465,689.121,693.617,689.121,687.919z"/>
	<path id="XMLID_76_" style="fill:#594F50;" d="M789.31,665.78c-1.58-3.81-3.91-7.36-7-10.63c-6.21-6.64-14.99-9.96-26.32-9.96
		c-2.61,0-5.09,0.19-7.45,0.57c-2.37,0.38-4.56,0.92-6.57,1.61c-2.02,0.7-3.98,1.64-5.89,2.82c-5.36,3.37-9.32,7.5-11.86,12.41
		c-2.58,4.94-3.87,10.05-3.87,15.32c0,9.64,3.31,17.5,9.91,23.59c2.1,1.95,4.41,3.59,6.91,4.9c-1.74,2.36-3.05,4.49-3.62,5.61
		c-36.07,6.11-98.86,20.61-108.78,65.65c-4.96,22.52,15.08,36.84,35.31,29.01c15.65-5.92,27.29-25.19,19.85-39.51
		c-1.53-3.43-4.78,0.77-4.01,1.72c3.05,2.87,4.01,25.39-16.03,33.4c-16.42,6.3-26.53-6.3-22.33-24.62
		c9.16-41.22,58.59-53.25,92.94-60.69c-4.01,6.87-17.37,31.68-28.63,61.65c-10.3,27.67-41.22,83.78-96.76,97.71
		c-30.53,7.64-80.35-6.49-70.23-48.09c4.01-15.84,16.41-27.87,23.09-30.73c1.91-0.95,3.82-2.86-0.19-2.67
		c-6.11,0.38-21.37,12.4-26.14,25c-17.94,47.71,23.28,71.57,77.1,62.6c27.67-4.58,54.39-19.85,75.38-46.76
		c30.35-38.93,29.01-76.91,52.3-119.66c1.72,0,5.72-1.72,8.01-1.72c2.81-0.96,5.67-2,8.11-3.38c0.29,0.04,0.58,0.08,0.86,0.12
		c0.09-0.14,0.18-0.28,0.26-0.42c0.76,0.04,1.54,0.06,2.33,0.06c10.94,0,19.62-3.25,26.05-9.77c6.42-6.51,9.63-14.18,9.63-23
		C791.67,673.65,790.89,669.6,789.31,665.78z M739.66,711.26c0.62-0.79,1.37-1.72,2.18-2.69c0.26,0.1,0.53,0.2,0.8,0.29
		c0.03-0.04,0.06-0.07,0.1-0.1c0.99,0.32,2,0.6,3.04,0.84C744.14,710.19,742.13,710.75,739.66,711.26z M762.17,692.29
		c-1.36,2.39-3.42,3.59-6.18,3.59c-2.79,0-4.83-1.25-6.14-3.73c-1.36-2.46-2.04-7.2-2.04-14.23c0-7.15,0.68-11.92,2.04-14.32
		c1.37-2.39,3.41-3.59,6.14-3.59c2.85,0,4.92,1.24,6.23,3.73c1.33,2.51,2,7.24,2,14.18C764.22,685.07,763.54,689.86,762.17,692.29z"
		/>
	<path id="XMLID_58_" style="fill:#594F50;" d="M800.899,677.919c0-5.273,1.287-10.379,3.863-15.318
		c2.546-4.909,6.5-9.046,11.864-12.41c1.909-1.182,3.871-2.121,5.887-2.818c2.015-0.697,4.204-1.234,6.568-1.614
		c2.363-0.378,4.848-0.568,7.455-0.568c11.333,0,20.106,3.318,26.318,9.955c3.091,3.273,5.425,6.818,7.001,10.637
		c1.575,3.818,2.363,7.864,2.363,12.137c0,8.819-3.213,16.486-9.637,23.001c-6.425,6.516-15.107,9.773-26.046,9.773
		c-10.577,0-19.153-3.061-25.729-9.182C804.201,695.42,800.899,687.556,800.899,677.919z M828.354,677.919
		c0,7.031,0.682,11.773,2.046,14.228c1.303,2.485,3.348,3.727,6.137,3.727c2.757,0,4.818-1.197,6.182-3.591
		c1.363-2.424,2.046-7.212,2.046-14.364c0-6.939-0.667-11.667-2-14.182c-1.304-2.484-3.38-3.728-6.228-3.728
		c-2.728,0-4.773,1.198-6.137,3.591C829.035,665.995,828.354,670.767,828.354,677.919z"/>
	<path id="XMLID_61_" style="fill:#594F50;" d="M910.992,709.693h-29.41v-15.137h4.955V661.6h-4.955v-15.137h30.274
		c6.909,0,12.546,0.425,16.909,1.273c4.394,0.849,8.53,2.591,12.41,5.228c3.848,2.667,6.878,6.273,9.091,10.818
		c1.091,2.182,1.924,4.516,2.5,7c0.575,2.485,0.863,5.091,0.863,7.818c0,5.485-1.167,10.485-3.5,15
		c-2.303,4.485-5.228,7.925-8.772,10.318c-3.455,2.395-7.243,3.955-11.364,4.682C925.903,709.329,919.569,709.693,910.992,709.693z
		 M910.992,661.6v32.956h2.318c5.758,0,9.501-1.53,11.228-4.591c1.697-3.061,2.546-6.909,2.546-11.546
		c0-2.788-0.363-5.545-1.091-8.273c-0.758-2.727-2.091-4.833-4-6.318c-1.88-1.484-5.243-2.227-10.092-2.227H910.992z"/>
	<polygon id="XMLID_2_" style="fill:#594F50;" points="990.984,526.585 536.542,526.585 525.758,534.13 999.694,534.13 	"/>
	<g id="XMLID_105_">
		<g id="XMLID_4_">
			<path id="XMLID_18_" style="fill:#594F50;" d="M585.727,456.364c7.714-0.493,11.549-0.653,19.168-0.81
				c0.903,6.114-0.972,14.076-4.225,19.229c-4.175,6.615-11.25,11.239-18.252,14.281c-9.152,3.977-20.382,6.537-30.216,3.479
				c-8.281-2.576-15.289-8.482-19.374-16.155c-4.169-7.832-4.932-17.113-1.814-25.48c3.48-9.34,11.378-16.79,20.266-20.212
				c6.898-2.656,14.536-5.068,22.327-3.248c-0.617-1.587-0.925-2.38-1.542-3.966c6.832-2.657,10.266-3.922,17.167-6.326
				c2.549,7.317,5.097,14.634,7.646,21.951c-6.844,2.384-10.25,3.642-17.023,6.287c-1.932-2.356-4.271-3.916-6.992-4.612
				c-2.704-0.692-5.46-0.464-8.142,0.675c-8.901,3.778-7.085,13.817-3.819,21.064c3.199,7.1,9.246,15.181,17.988,11.645
				C585.994,471.29,587.248,463.067,585.727,456.364z"/>
			<path id="XMLID_13_" style="fill:#594F50;" d="M610.876,443.298c-1.594-5.039-1.802-10.404-0.429-16.035
				c1.362-5.588,4.604-10.95,9.829-15.934c1.864-1.759,3.872-3.289,6.018-4.587c2.146-1.297,4.548-2.479,7.2-3.534
				c2.653-1.056,5.513-1.954,8.544-2.643c10.486-2.383,23.18-2.668,32.513,3.733c4.114,2.651,7.332,5.767,9.69,9.297
				c2.358,3.53,3.813,7.442,4.436,11.693c1.286,8.77-1.522,17.516-6.791,24.499c-6.391,8.47-15.338,12.381-24.986,15.015
				c-9.168,2.503-19.687,2.022-28.634-2.017C619.989,459.048,613.624,451.984,610.876,443.298z M640.548,434.814
				c1.726,6.863,3.673,11.308,5.654,13.351c1.976,2.038,4.408,2.783,7.338,2.105c2.898-0.67,4.812-2.324,5.74-4.989
				c0.937-2.688,0.672-7.567-0.816-14.611c-1.444-6.834-3.178-11.335-5.206-13.486c-1.997-2.118-4.629-2.833-7.856-2.087
				c-3.089,0.715-5.124,2.452-6.077,5.168C638.372,422.983,638.792,427.833,640.548,434.814z"/>
			<path id="XMLID_11_" style="fill:#594F50;" d="M740.385,452.606c-13.341,0.652-26.562,1.76-39.828,3.336
				c-0.779-6.045-1.168-9.067-1.947-15.112c2.836-0.365,4.256-0.537,7.096-0.858c-1.244-10.987-2.488-21.975-3.732-32.962
				c-3.148,0.356-4.72,0.547-7.863,0.953c-0.782-6.044-1.173-9.066-1.955-15.111c24.565-2.948,49.058-4.333,73.797-4.173
				c-0.109,6.984-0.218,13.969-0.326,20.953c-7.66-0.119-11.492-0.104-19.152,0.074c-0.053-2.287-0.08-3.431-0.134-5.718
				c-6.513,0.152-9.769,0.281-16.275,0.646c0.22,3.911,0.329,5.866,0.549,9.776c4.922-0.276,7.385-0.383,12.311-0.535
				c0.16,5.177,0.24,7.766,0.399,12.943c-4.796,0.148-7.193,0.252-11.985,0.521c0.234,4.166,0.351,6.25,0.585,10.416
				c3.144-0.176,4.716-0.251,7.862-0.374C740.028,443.471,740.147,446.516,740.385,452.606z"/>
			<path id="XMLID_9_" style="fill:#594F50;" d="M808.843,455.15c-13.282-1.381-26.514-2.295-39.862-2.752
				c0.149-6.093,0.224-9.139,0.373-15.232c2.854,0.07,4.281,0.116,7.133,0.23c0.441-11.049,0.882-22.098,1.322-33.146
				c-3.161-0.126-4.742-0.176-7.904-0.252c0.146-6.093,0.219-9.139,0.365-15.232c24.745,0.819,49.181,3.174,73.625,7.095
				c-1.17,6.887-2.34,13.773-3.51,20.66c-7.578-1.287-11.377-1.856-18.989-2.845c0.295-2.269,0.442-3.403,0.737-5.672
				c-6.472-0.841-9.714-1.208-16.205-1.836c-0.377,3.898-0.566,5.848-0.943,9.746c4.911,0.475,7.364,0.744,12.264,1.343
				c-0.629,5.141-0.944,7.712-1.573,12.853c-4.77-0.583-7.158-0.845-11.938-1.307c-0.402,4.154-0.603,6.23-1.005,10.384
				c3.136,0.303,4.703,0.468,7.835,0.825C809.878,446.066,809.533,449.094,808.843,455.15z"/>
			<path id="XMLID_7_" style="fill:#594F50;" d="M900.195,475.359c-20.128-6.494-40.403-11.71-61.167-15.729
				c1.099-5.995,1.649-8.992,2.749-14.987c2.085,0.382,3.126,0.579,5.208,0.985c2.119-10.853,4.237-21.706,6.356-32.558
				c-2.271-0.443-3.408-0.658-5.683-1.075c1.098-5.995,1.647-8.992,2.746-14.987c23.732,4.564,46.948,10.533,69.937,17.977
				c-2.148,6.438-4.297,12.876-6.445,19.315c-7.266-2.425-10.918-3.565-18.252-5.7c0.573-1.968,0.859-2.952,1.432-4.92
				c-6.415-1.867-9.635-2.746-16.096-4.394c-0.968,3.795-1.452,5.693-2.42,9.488c5.512,1.406,8.26,2.149,13.738,3.718
				c-1.426,4.979-2.139,7.469-3.565,12.449c-5.333-1.527-8.008-2.251-13.374-3.619c-1.031,4.044-1.547,6.065-2.578,10.109
				c6.03,1.538,9.035,2.358,15.023,4.101c0.573-1.968,0.859-2.952,1.432-4.92c6.993,2.035,10.474,3.122,17.403,5.434
				C904.491,462.483,902.343,468.921,900.195,475.359z"/>
			<path id="XMLID_6_" style="fill:#594F50;" d="M968.226,504.491c-19.051-9.841-38.462-18.415-58.572-25.857
				c2.057-5.737,3.086-8.605,5.144-14.342c2.016,0.723,3.022,1.091,5.031,1.838c3.853-10.365,7.705-20.73,11.558-31.095
				c-2.193-0.815-3.291-1.216-5.491-2.005c2.056-5.737,3.084-8.606,5.141-14.343c22.989,8.475,45.216,18.29,66.971,29.557
				c-3.176,5.998-6.352,11.996-9.528,17.994c-6.887-3.647-10.359-5.397-17.35-8.754c0.887-1.848,1.331-2.772,2.218-4.62
				c-6.116-2.936-9.193-4.349-15.381-7.065c-1.574,3.587-2.361,5.38-3.934,8.967c5.279,2.317,7.907,3.517,13.133,5.997
				c-2.221,4.679-3.331,7.019-5.551,11.698c-5.087-2.415-7.645-3.582-12.784-5.838c-1.677,3.821-2.515,5.732-4.192,9.553
				c5.776,2.535,8.648,3.854,14.356,6.594c0.887-1.848,1.331-2.772,2.217-4.62c6.666,3.2,9.976,4.87,16.543,8.347
				C974.578,492.495,971.402,498.493,968.226,504.491z"/>
		</g>
	</g>
	<g id="XMLID_3_">
		<path id="XMLID_29_" style="fill:#FD740F;" d="M771.994,200.143c0,0-32.38,16.434-20.327,60.451
			c9.689,35.161,27.839,49.151,19.518,83.491c0,0,25.287-30.448,3.731-72.516C753.244,229.498,767.616,205.706,771.994,200.143z"/>
		<path id="XMLID_39_" style="fill:#FD740F;" d="M742.211,237.704c0,0-17.733,15.82-5.169,39.579
			c10.429,19.783,20.118,34.236,22.971,49.799c0,0,2.317-18.205-9.041-42.011C739.639,261.301,739.961,243.858,742.211,237.704z"/>
	</g>
	<g id="XMLID_69_">
		<path id="XMLID_83_" style="fill:#594F50;" d="M963.54,858.54c-8.21-18.07-62.46-1.71-82.22,12.09
			c-14.92,10.43-24.4,20.89-27.52,31.73c-15.59-2.44-31.02-8.35-43.9-13.63c-30.86-12.65-54.75-29.58-78.9-36.65
			c7.1-4.14,12.44-13.14,16.3-19.44c-1.91,7.82-0.38,13.55,1.72,16.79c2.48,3.63,5.53,5.15,8.58,5.15c9.65,0,17.63-9.92,23.35-19.91
			c-0.06,0.8-0.07,1.58-0.06,2.36c0.19,12.02,8.54,18.32,18.08,18.32c13.14,0,21.03-8.14,27.03-17.98v-0.01
			c0.17-0.26,0.34-0.52,0.52-0.79c-1.03,16.6,9.84,24.93,23.65,11.72c5.53-5.35,10.68-12.98,13.74-17.94
			c-5.73,20.04,3.24,25,9.54,24.62c11.45-0.96,23.09-23.86,28.82-35.5c1.91-3.82-0.96-4.96-2.67-1.53
			c-4.01,8.21-16.61,32.45-24.62,32.06c-2.49,0-3.44-3.62-1.91-11.45c2.48-11.64,13.74-31.68,17.75-35.69
			c-2.68,0.58-5.54-0.57-8.02-0.76c-6.11-0.38-8.78,4.2-12.98,12.21c-4.96,9.36-10.3,18.71-16.98,26.72
			c-8.97,10.69-19.47,12.22-17.56-1.14c1.14-7.25,6.3-16.61,7.82-19.28c6.87-11.26,16.8-22.52,25.39-27.29
			c7.06-3.82,14.12-2.29,16.22,4.77c3.24,0.58,4.77-2.67,2.1-5.53c-10.88-11.83-32.83-4.77-44.28,8.78
			c-7.63,9.15-12.22,18.21-14.44,26.2c0,0.01-0.01,0.01-0.01,0.02c-5.51,10.7-14.54,23.78-27.34,23.78
			c-12.6,0-9.36-19.28-6.49-26.15c5.15,0,17.56-4,23.47-8.39c12.22-9.36,17.75-22.33,10.5-27.87c-8.4-6.3-22.9,0.96-32.64,12.41
			c-4.86,5.75-9.08,12.97-11.73,20.25c-0.01,0-0.01,0.01-0.01,0.01c-4.93,9.91-14.45,28.02-22.8,28.02
			c-8.97,0-3.05-16.03-1.15-20.42c11.07-26.34,44.66-87.98,50.39-93.32c-2.86,0.38-5.73-0.58-8.21-0.77
			c-6.1-0.57-9.35,1.34-12.98,9.93c-4.58,10.3-12.97,27.86-22.13,45.23c-13.75-8.02-30.35-1.34-41.04,11.07
			c-11.41,13.75-20.51,36.84-13.59,47.48c-29.93-1.43-65.73,14.35-62.69,34.42c3.12,20.5,58.77,29.24,83.75,20.41
			c7.78-2.75,14.03-5.76,18.95-8.61c-2.14,6.61-7.04,15.81-17.69,27.68c-20.59,22.98-13.47,61.69,1.13,74.29
			c0,0-13.46-29.37,2.18-55.66c5.8-9.71,21.18-31.67,19-49.17c4.64-3.09,7.6-5.74,9.19-7.33c3.35,11.92,2.84,30.17-13.05,54.87
			c-26.98,41.79,3.71,71.53,3.71,71.53c-9.84-33.77,12.56-47.82,24.75-82.78c7.1-20.15,2.5-34.35-4.5-43.79
			c19.25,10.66,49.46,25.66,75.82,28.94c1.78,14.4,15.91,24.45,19.37,26.59c3.51,2.18,6.76,3.44,9.9,4.45
			c1.78,0.57,3.11,0.38,3.3-0.16c0.25-0.7-1.12-1.45-2.93-2.4c-1.81-0.94-2.98-1.27-7.43-4.73c-3.88-3-12.48-13.29-12.88-23.09
			C929.35,915.56,971.7,876.5,963.54,858.54z M807.03,804.01c23.48-28.44,24.43-3.63,8.78,9.54c-6.87,5.73-16.79,8.4-20.23,8.4
			C797.3,818.51,802.07,810.12,807.03,804.01z M724.78,823.86c10.11-18.71,31.11-39.89,40.65-30.54
			c-8.97,16.8-18.51,33.21-25.58,43.13C723.63,859.36,712.18,847.52,724.78,823.86z M756.91,877.41c0,0-17.18,15.72-44.44,20.53
			c-27.27,4.81-57.48-4.45-57.48-16.93c0-12.47,37.82-26.67,58.37-23.61c20.94,3.12,35.3,11.28,46.09,17.23
			c0.87,0.48,2,1.13,3.37,1.93c0.86,1.59,1.69,3.39,2.41,5.42L756.91,877.41z M903.6,871.21c23.46-12.26,53.44-17.14,57.03-10.69
			c5.8,10.42-33.52,46.24-95.74,42.97C870.61,890.96,883.47,881.74,903.6,871.21z"/>
	</g>
</g>
<g id="XMLID_28_">
</g>
<g id="XMLID_41_">
</g>
<g id="XMLID_42_">
</g>
<g id="XMLID_43_">
</g>
<g id="XMLID_49_">
</g>
<g id="XMLID_55_">
</g>
<g id="XMLID_56_">
</g>
<g id="XMLID_57_">
</g>
<g id="XMLID_64_">
</g>
<g id="XMLID_65_">
</g>
<g id="XMLID_68_">
</g>
<g id="XMLID_70_">
</g>
<g id="XMLID_72_">
</g>
<g id="XMLID_75_">
</g>
<g id="XMLID_79_">
</g>
</svg>
